X Lossless Decoder version 20240511 (157.1)

XLD extraction logfile from 2024-08-01 11:19:05 +0800

多个表演者 / TVアニメ「ダンジョン飯」オリジナルサウンドトラック [Disc 1]

Used drive : ASUS BW-16D1HT (revision 3.01)
Media type : Pressed CD

Ripper mode             : XLD Secure Ripper
Disable audio cache     : OK for the drive with a cache less than 1375KiB
Make use of C2 pointers : NO
Read offset correction  : 6
Max retry count         : 20
Gap status              : Analyzed, Appended (except HTOA)

TOC of the extracted CD
     Track |   Start  |  Length  | Start sector | End sector 
    ---------------------------------------------------------
        1  | 00:00:00 | 02:45:01 |         0    |    12375   
        2  | 02:45:01 | 02:00:65 |     12376    |    21440   
        3  | 04:45:66 | 02:24:15 |     21441    |    32255   
        4  | 07:10:06 | 01:53:22 |     32256    |    40752   
        5  | 09:03:28 | 01:56:28 |     40753    |    49480   
        6  | 10:59:56 | 01:58:61 |     49481    |    58391   
        7  | 12:58:42 | 02:15:44 |     58392    |    68560   
        8  | 15:14:11 | 01:43:46 |     68561    |    76331   
        9  | 16:57:57 | 01:58:28 |     76332    |    85209   
       10  | 18:56:10 | 02:06:53 |     85210    |    94712   
       11  | 21:02:63 | 00:09:27 |     94713    |    95414   
       12  | 21:12:15 | 02:12:33 |     95415    |   105347   
       13  | 23:24:48 | 01:33:67 |    105348    |   112389   
       14  | 24:58:40 | 02:00:12 |    112390    |   121401   
       15  | 26:58:52 | 01:56:37 |    121402    |   130138   
       16  | 28:55:14 | 02:18:16 |    130139    |   140504   
       17  | 31:13:30 | 02:01:19 |    140505    |   149598   
       18  | 33:14:49 | 02:02:52 |    149599    |   158800   
       19  | 35:17:26 | 01:50:48 |    158801    |   167098   
       20  | 37:07:74 | 01:53:58 |    167099    |   175631   
       21  | 39:01:57 | 01:41:07 |    175632    |   183213   
       22  | 40:42:64 | 02:57:36 |    183214    |   196524   
       23  | 43:40:25 | 01:40:69 |    196525    |   204093   
       24  | 45:21:19 | 02:08:47 |    204094    |   213740   
       25  | 47:29:66 | 01:54:18 |    213741    |   222308   
       26  | 49:24:09 | 02:40:15 |    222309    |   234323   
       27  | 52:04:24 | 01:51:64 |    234324    |   242712   
       28  | 53:56:13 | 01:48:41 |    242713    |   250853   
       29  | 55:44:54 | 01:48:55 |    250854    |   259008   
       30  | 57:33:34 | 02:09:27 |    259009    |   268710   
       31  | 59:42:61 | 02:16:44 |    268711    |   278954   
       32  | 61:59:30 | 01:33:40 |    278955    |   285969   
       33  | 63:32:70 | 01:56:44 |    285970    |   294713   
       34  | 65:29:39 | 00:11:59 |    294714    |   295597   
       35  | 65:41:23 | 02:06:34 |    295598    |   305081   
       36  | 67:47:57 | 02:07:50 |    305082    |   314656   
       37  | 69:55:32 | 02:04:09 |    314657    |   323965   
       38  | 71:59:41 | 00:41:31 |    323966    |   327071   
       39  | 72:40:72 | 01:42:41 |    327072    |   334762   
       40  | 74:23:38 | 01:55:51 |    334763    |   343438   

AccurateRip Summary
    Disc not found in AccurateRip DB.

All Tracks
    Album gain               : -3.19 dB
    Peak                     : 0.992096
    Statistics
        Read error                           : 0
        Jitter error (maybe fixed)           : 0
        Retry sector count                   : 0
        Damaged sector count                 : 0

Track 01
    Filename : /Users/Shared/XLD/Compilations - TVアニメ「ダンジョン飯」オリジナルサウンドトラック [Disc 1] (2024) [FLAC]/01. ダンジョン飯 -メインテーマ-.flac
    Pre-gap length : 00:02:00

    Track gain               : -6.43 dB
    Peak                     : 0.963226
    CRC32 hash (test run)    : 445CEB2B
    CRC32 hash               : 445CEB2B
    CRC32 hash (skip zero)   : B64AF5DD
    AccurateRip v1 signature : 82259C33
    AccurateRip v2 signature : C7092BE8
        ->Track not present in AccurateRip database.
    Statistics
        Read error                           : 0
        Jitter error (maybe fixed)           : 0
        Retry sector count                   : 0
        Damaged sector count                 : 0

Track 02
    Filename : /Users/Shared/XLD/Compilations - TVアニメ「ダンジョン飯」オリジナルサウンドトラック [Disc 1] (2024) [FLAC]/02. 魂の行方.flac

    Track gain               : -0.69 dB
    Peak                     : 0.929352
    CRC32 hash (test run)    : F3EFE5B6
    CRC32 hash               : F3EFE5B6
    CRC32 hash (skip zero)   : 32892B43
    AccurateRip v1 signature : 991E4C2A
    AccurateRip v2 signature : FDD78BD2
        ->Track not present in AccurateRip database.
    Statistics
        Read error                           : 0
        Jitter error (maybe fixed)           : 0
        Retry sector count                   : 0
        Damaged sector count                 : 0

Track 03
    Filename : /Users/Shared/XLD/Compilations - TVアニメ「ダンジョン飯」オリジナルサウンドトラック [Disc 1] (2024) [FLAC]/03. 炎竜.flac

    Track gain               : -7.38 dB
    Peak                     : 0.958435
    CRC32 hash (test run)    : 8680C3C6
    CRC32 hash               : 8680C3C6
    CRC32 hash (skip zero)   : 0D4FB4E3
    AccurateRip v1 signature : 42BE317F
    AccurateRip v2 signature : 528A33A5
        ->Track not present in AccurateRip database.
    Statistics
        Read error                           : 0
        Jitter error (maybe fixed)           : 0
        Retry sector count                   : 0
        Damaged sector count                 : 0

Track 04
    Filename : /Users/Shared/XLD/Compilations - TVアニメ「ダンジョン飯」オリジナルサウンドトラック [Disc 1] (2024) [FLAC]/04. 挽回の兆.flac

    Track gain               : -5.20 dB
    Peak                     : 0.951172
    CRC32 hash (test run)    : 9F9FE2CC
    CRC32 hash               : 9F9FE2CC
    CRC32 hash (skip zero)   : 2599C976
    AccurateRip v1 signature : 7E374A68
    AccurateRip v2 signature : 157BF2D6
        ->Track not present in AccurateRip database.
    Statistics
        Read error                           : 0
        Jitter error (maybe fixed)           : 0
        Retry sector count                   : 0
        Damaged sector count                 : 0

Track 05
    Filename : /Users/Shared/XLD/Compilations - TVアニメ「ダンジョン飯」オリジナルサウンドトラック [Disc 1] (2024) [FLAC]/05. 賑わう冒険者たち.flac

    Track gain               : -4.77 dB
    Peak                     : 0.922668
    CRC32 hash (test run)    : 62225007
    CRC32 hash               : 62225007
    CRC32 hash (skip zero)   : 6A819CA3
    AccurateRip v1 signature : F0CD5159
    AccurateRip v2 signature : AF8BB3A7
        ->Track not present in AccurateRip database.
    Statistics
        Read error                           : 0
        Jitter error (maybe fixed)           : 0
        Retry sector count                   : 0
        Damaged sector count                 : 0

Track 06
    Filename : /Users/Shared/XLD/Compilations - TVアニメ「ダンジョン飯」オリジナルサウンドトラック [Disc 1] (2024) [FLAC]/06. 実食 -不安と喜び-.flac

    Track gain               : -0.47 dB
    Peak                     : 0.777740
    CRC32 hash (test run)    : 432EA511
    CRC32 hash               : 432EA511
    CRC32 hash (skip zero)   : EE92A123
    AccurateRip v1 signature : 73D39403
    AccurateRip v2 signature : 3964A7FC
        ->Track not present in AccurateRip database.
    Statistics
        Read error                           : 0
        Jitter error (maybe fixed)           : 0
        Retry sector count                   : 0
        Damaged sector count                 : 0

Track 07
    Filename : /Users/Shared/XLD/Compilations - TVアニメ「ダンジョン飯」オリジナルサウンドトラック [Disc 1] (2024) [FLAC]/07. 合理的魔物マニアのありがた迷惑.flac

    Track gain               : -2.85 dB
    Peak                     : 0.924255
    CRC32 hash (test run)    : 4EF57CC0
    CRC32 hash               : 4EF57CC0
    CRC32 hash (skip zero)   : A8745BFD
    AccurateRip v1 signature : C9C38AEC
    AccurateRip v2 signature : 473E02B1
        ->Track not present in AccurateRip database.
    Statistics
        Read error                           : 0
        Jitter error (maybe fixed)           : 0
        Retry sector count                   : 0
        Damaged sector count                 : 0

Track 08
    Filename : /Users/Shared/XLD/Compilations - TVアニメ「ダンジョン飯」オリジナルサウンドトラック [Disc 1] (2024) [FLAC]/08. 美しき故郷の踊り.flac

    Track gain               : -4.42 dB
    Peak                     : 0.827026
    CRC32 hash (test run)    : DBCC1D7B
    CRC32 hash               : DBCC1D7B
    CRC32 hash (skip zero)   : 3FB1C5FF
    AccurateRip v1 signature : 6264F3CC
    AccurateRip v2 signature : 0681F8D3
        ->Track not present in AccurateRip database.
    Statistics
        Read error                           : 0
        Jitter error (maybe fixed)           : 0
        Retry sector count                   : 0
        Damaged sector count                 : 0

Track 09
    Filename : /Users/Shared/XLD/Compilations - TVアニメ「ダンジョン飯」オリジナルサウンドトラック [Disc 1] (2024) [FLAC]/09. 今日のダンジョン飯.flac

    Track gain               : -1.77 dB
    Peak                     : 0.902802
    CRC32 hash (test run)    : DD0DA265
    CRC32 hash               : DD0DA265
    CRC32 hash (skip zero)   : 0F073714
    AccurateRip v1 signature : 2C0FC3CB
    AccurateRip v2 signature : 4D7D0F87
        ->Track not present in AccurateRip database.
    Statistics
        Read error                           : 0
        Jitter error (maybe fixed)           : 0
        Retry sector count                   : 0
        Damaged sector count                 : 0

Track 10
    Filename : /Users/Shared/XLD/Compilations - TVアニメ「ダンジョン飯」オリジナルサウンドトラック [Disc 1] (2024) [FLAC]/10. センシの知恵袋.flac

    Track gain               : -1.00 dB
    Peak                     : 0.931519
    CRC32 hash (test run)    : E12B28D1
    CRC32 hash               : E12B28D1
    CRC32 hash (skip zero)   : 733E3034
    AccurateRip v1 signature : DD960AEE
    AccurateRip v2 signature : E77C05BF
        ->Track not present in AccurateRip database.
    Statistics
        Read error                           : 0
        Jitter error (maybe fixed)           : 0
        Retry sector count                   : 0
        Damaged sector count                 : 0

Track 11
    Filename : /Users/Shared/XLD/Compilations - TVアニメ「ダンジョン飯」オリジナルサウンドトラック [Disc 1] (2024) [FLAC]/11. 上手に出来ました～.flac

    Track gain               : -4.63 dB
    Peak                     : 0.760223
    CRC32 hash (test run)    : 21F5624F
    CRC32 hash               : 21F5624F
    CRC32 hash (skip zero)   : 279B15CB
    AccurateRip v1 signature : 6B4C1B33
    AccurateRip v2 signature : 0E291B3E
        ->Track not present in AccurateRip database.
    Statistics
        Read error                           : 0
        Jitter error (maybe fixed)           : 0
        Retry sector count                   : 0
        Damaged sector count                 : 0

Track 12
    Filename : /Users/Shared/XLD/Compilations - TVアニメ「ダンジョン飯」オリジナルサウンドトラック [Disc 1] (2024) [FLAC]/12. 忍び寄る陰.flac

    Track gain               : -3.17 dB
    Peak                     : 0.886169
    CRC32 hash (test run)    : 6C50CF3B
    CRC32 hash               : 6C50CF3B
    CRC32 hash (skip zero)   : CBDE2F68
    AccurateRip v1 signature : A49883EE
    AccurateRip v2 signature : CEF3A214
        ->Track not present in AccurateRip database.
    Statistics
        Read error                           : 0
        Jitter error (maybe fixed)           : 0
        Retry sector count                   : 0
        Damaged sector count                 : 0

Track 13
    Filename : /Users/Shared/XLD/Compilations - TVアニメ「ダンジョン飯」オリジナルサウンドトラック [Disc 1] (2024) [FLAC]/13. 和やかな盟友.flac

    Track gain               : 3.33 dB
    Peak                     : 0.669678
    CRC32 hash (test run)    : BC3F06B4
    CRC32 hash               : BC3F06B4
    CRC32 hash (skip zero)   : 6E8C450D
    AccurateRip v1 signature : BC2ADBD9
    AccurateRip v2 signature : 38EB2DD0
        ->Track not present in AccurateRip database.
    Statistics
        Read error                           : 0
        Jitter error (maybe fixed)           : 0
        Retry sector count                   : 0
        Damaged sector count                 : 0

Track 14
    Filename : /Users/Shared/XLD/Compilations - TVアニメ「ダンジョン飯」オリジナルサウンドトラック [Disc 1] (2024) [FLAC]/14. 未熟な冒険者へ.flac
    Pre-gap length : 00:02:04

    Track gain               : 0.49 dB
    Peak                     : 0.638641
    CRC32 hash (test run)    : DEA5F21D
    CRC32 hash               : DEA5F21D
    CRC32 hash (skip zero)   : C46566AD
    AccurateRip v1 signature : 1F11BCA7
    AccurateRip v2 signature : FC6F3268
        ->Track not present in AccurateRip database.
    Statistics
        Read error                           : 0
        Jitter error (maybe fixed)           : 0
        Retry sector count                   : 0
        Damaged sector count                 : 0

Track 15
    Filename : /Users/Shared/XLD/Compilations - TVアニメ「ダンジョン飯」オリジナルサウンドトラック [Disc 1] (2024) [FLAC]/15. 迷宮の闇と謎.flac
    Pre-gap length : 00:01:20

    Track gain               : 1.32 dB
    Peak                     : 0.593262
    CRC32 hash (test run)    : 6F7A0777
    CRC32 hash               : 6F7A0777
    CRC32 hash (skip zero)   : F4A71B3D
    AccurateRip v1 signature : 7E4E3A58
    AccurateRip v2 signature : B6740BD0
        ->Track not present in AccurateRip database.
    Statistics
        Read error                           : 0
        Jitter error (maybe fixed)           : 0
        Retry sector count                   : 0
        Damaged sector count                 : 0

Track 16
    Filename : /Users/Shared/XLD/Compilations - TVアニメ「ダンジョン飯」オリジナルサウンドトラック [Disc 1] (2024) [FLAC]/16. 残存と滅亡の狭間.flac

    Track gain               : -5.64 dB
    Peak                     : 0.976471
    CRC32 hash (test run)    : A5887D92
    CRC32 hash               : A5887D92
    CRC32 hash (skip zero)   : 71D5F33E
    AccurateRip v1 signature : 5D3D532B
    AccurateRip v2 signature : 32B951BF
        ->Track not present in AccurateRip database.
    Statistics
        Read error                           : 0
        Jitter error (maybe fixed)           : 0
        Retry sector count                   : 0
        Damaged sector count                 : 0

Track 17
    Filename : /Users/Shared/XLD/Compilations - TVアニメ「ダンジョン飯」オリジナルサウンドトラック [Disc 1] (2024) [FLAC]/17. 昨日のことのように.flac

    Track gain               : 0.72 dB
    Peak                     : 0.589294
    CRC32 hash (test run)    : 1820065C
    CRC32 hash               : 1820065C
    CRC32 hash (skip zero)   : FCC5C3C7
    AccurateRip v1 signature : C6B59C20
    AccurateRip v2 signature : E34E733C
        ->Track not present in AccurateRip database.
    Statistics
        Read error                           : 0
        Jitter error (maybe fixed)           : 0
        Retry sector count                   : 0
        Damaged sector count                 : 0

Track 18
    Filename : /Users/Shared/XLD/Compilations - TVアニメ「ダンジョン飯」オリジナルサウンドトラック [Disc 1] (2024) [FLAC]/18. 警戒探索.flac

    Track gain               : -0.17 dB
    Peak                     : 0.992096
    CRC32 hash (test run)    : 00A96024
    CRC32 hash               : 00A96024
    CRC32 hash (skip zero)   : B54187B8
    AccurateRip v1 signature : C55C3D9E
    AccurateRip v2 signature : 25BDB8B7
        ->Track not present in AccurateRip database.
    Statistics
        Read error                           : 0
        Jitter error (maybe fixed)           : 0
        Retry sector count                   : 0
        Damaged sector count                 : 0

Track 19
    Filename : /Users/Shared/XLD/Compilations - TVアニメ「ダンジョン飯」オリジナルサウンドトラック [Disc 1] (2024) [FLAC]/19. 不気味な口あたり.flac

    Track gain               : 4.08 dB
    Peak                     : 0.621552
    CRC32 hash (test run)    : 4896D1F3
    CRC32 hash               : 4896D1F3
    CRC32 hash (skip zero)   : 8184C673
    AccurateRip v1 signature : F1496FA0
    AccurateRip v2 signature : D599D7C4
        ->Track not present in AccurateRip database.
    Statistics
        Read error                           : 0
        Jitter error (maybe fixed)           : 0
        Retry sector count                   : 0
        Damaged sector count                 : 0

Track 20
    Filename : /Users/Shared/XLD/Compilations - TVアニメ「ダンジョン飯」オリジナルサウンドトラック [Disc 1] (2024) [FLAC]/20. 予想外の進撃.flac

    Track gain               : -4.92 dB
    Peak                     : 0.980743
    CRC32 hash (test run)    : 05EFD399
    CRC32 hash               : 05EFD399
    CRC32 hash (skip zero)   : 138DE50E
    AccurateRip v1 signature : 6D928B58
    AccurateRip v2 signature : 5C839C9E
        ->Track not present in AccurateRip database.
    Statistics
        Read error                           : 0
        Jitter error (maybe fixed)           : 0
        Retry sector count                   : 0
        Damaged sector count                 : 0

Track 21
    Filename : /Users/Shared/XLD/Compilations - TVアニメ「ダンジョン飯」オリジナルサウンドトラック [Disc 1] (2024) [FLAC]/21. 勝利の余韻.flac

    Track gain               : -5.17 dB
    Peak                     : 0.971100
    CRC32 hash (test run)    : 2FA60630
    CRC32 hash               : 2FA60630
    CRC32 hash (skip zero)   : 48804694
    AccurateRip v1 signature : 0D1523BA
    AccurateRip v2 signature : 6E44C89B
        ->Track not present in AccurateRip database.
    Statistics
        Read error                           : 0
        Jitter error (maybe fixed)           : 0
        Retry sector count                   : 0
        Damaged sector count                 : 0

Track 22
    Filename : /Users/Shared/XLD/Compilations - TVアニメ「ダンジョン飯」オリジナルサウンドトラック [Disc 1] (2024) [FLAC]/22. 不吉な巨大生物.flac
    Pre-gap length : 00:01:59

    Track gain               : -5.79 dB
    Peak                     : 0.905762
    CRC32 hash (test run)    : 66CD0BA5
    CRC32 hash               : 66CD0BA5
    CRC32 hash (skip zero)   : 4858FC75
    AccurateRip v1 signature : 626342F9
    AccurateRip v2 signature : 6FB2A62F
        ->Track not present in AccurateRip database.
    Statistics
        Read error                           : 0
        Jitter error (maybe fixed)           : 0
        Retry sector count                   : 0
        Damaged sector count                 : 0

Track 23
    Filename : /Users/Shared/XLD/Compilations - TVアニメ「ダンジョン飯」オリジナルサウンドトラック [Disc 1] (2024) [FLAC]/23. 消失した希望の果てに.flac
    Pre-gap length : 00:01:35

    Track gain               : -0.12 dB
    Peak                     : 0.621979
    CRC32 hash (test run)    : EFB9ED52
    CRC32 hash               : EFB9ED52
    CRC32 hash (skip zero)   : 0E6C6BF3
    AccurateRip v1 signature : E4BAF2DC
    AccurateRip v2 signature : 33C3A19A
        ->Track not present in AccurateRip database.
    Statistics
        Read error                           : 0
        Jitter error (maybe fixed)           : 0
        Retry sector count                   : 0
        Damaged sector count                 : 0

Track 24
    Filename : /Users/Shared/XLD/Compilations - TVアニメ「ダンジョン飯」オリジナルサウンドトラック [Disc 1] (2024) [FLAC]/24. 食の恵.flac

    Track gain               : 0.66 dB
    Peak                     : 0.528442
    CRC32 hash (test run)    : 90972477
    CRC32 hash               : 90972477
    CRC32 hash (skip zero)   : FB958C6E
    AccurateRip v1 signature : 2EF6B292
    AccurateRip v2 signature : 7AF9236C
        ->Track not present in AccurateRip database.
    Statistics
        Read error                           : 0
        Jitter error (maybe fixed)           : 0
        Retry sector count                   : 0
        Damaged sector count                 : 0

Track 25
    Filename : /Users/Shared/XLD/Compilations - TVアニメ「ダンジョン飯」オリジナルサウンドトラック [Disc 1] (2024) [FLAC]/25. 不都合な噂話.flac

    Track gain               : -1.06 dB
    Peak                     : 0.786438
    CRC32 hash (test run)    : 97D02400
    CRC32 hash               : 97D02400
    CRC32 hash (skip zero)   : A0E64358
    AccurateRip v1 signature : AE30B9CE
    AccurateRip v2 signature : 9D897332
        ->Track not present in AccurateRip database.
    Statistics
        Read error                           : 0
        Jitter error (maybe fixed)           : 0
        Retry sector count                   : 0
        Damaged sector count                 : 0

Track 26
    Filename : /Users/Shared/XLD/Compilations - TVアニメ「ダンジョン飯」オリジナルサウンドトラック [Disc 1] (2024) [FLAC]/26. 戦いに備えよ!.flac

    Track gain               : -4.32 dB
    Peak                     : 0.895416
    CRC32 hash (test run)    : ECAECBAA
    CRC32 hash               : ECAECBAA
    CRC32 hash (skip zero)   : 0820FD62
    AccurateRip v1 signature : 372E556F
    AccurateRip v2 signature : CDAABB01
        ->Track not present in AccurateRip database.
    Statistics
        Read error                           : 0
        Jitter error (maybe fixed)           : 0
        Retry sector count                   : 0
        Damaged sector count                 : 0

Track 27
    Filename : /Users/Shared/XLD/Compilations - TVアニメ「ダンジョン飯」オリジナルサウンドトラック [Disc 1] (2024) [FLAC]/27. 迷宮の扉は開かれた.flac

    Track gain               : 1.73 dB
    Peak                     : 0.556488
    CRC32 hash (test run)    : 4F0D7EB3
    CRC32 hash               : 4F0D7EB3
    CRC32 hash (skip zero)   : 27EA59AB
    AccurateRip v1 signature : 26BDBC17
    AccurateRip v2 signature : 831C249B
        ->Track not present in AccurateRip database.
    Statistics
        Read error                           : 0
        Jitter error (maybe fixed)           : 0
        Retry sector count                   : 0
        Damaged sector count                 : 0

Track 28
    Filename : /Users/Shared/XLD/Compilations - TVアニメ「ダンジョン飯」オリジナルサウンドトラック [Disc 1] (2024) [FLAC]/28. 抜き差しならない押し問答.flac

    Track gain               : -1.92 dB
    Peak                     : 0.878296
    CRC32 hash (test run)    : E0E162FD
    CRC32 hash               : E0E162FD
    CRC32 hash (skip zero)   : 40CEC95D
    AccurateRip v1 signature : 850A5AB3
    AccurateRip v2 signature : 4AFF2A37
        ->Track not present in AccurateRip database.
    Statistics
        Read error                           : 0
        Jitter error (maybe fixed)           : 0
        Retry sector count                   : 0
        Damaged sector count                 : 0

Track 29
    Filename : /Users/Shared/XLD/Compilations - TVアニメ「ダンジョン飯」オリジナルサウンドトラック [Disc 1] (2024) [FLAC]/29. 親愛なる想い.flac

    Track gain               : 2.85 dB
    Peak                     : 0.510773
    CRC32 hash (test run)    : CAFA3902
    CRC32 hash               : CAFA3902
    CRC32 hash (skip zero)   : 14DEB9C8
    AccurateRip v1 signature : E3D8266A
    AccurateRip v2 signature : 6ED782BA
        ->Track not present in AccurateRip database.
    Statistics
        Read error                           : 0
        Jitter error (maybe fixed)           : 0
        Retry sector count                   : 0
        Damaged sector count                 : 0

Track 30
    Filename : /Users/Shared/XLD/Compilations - TVアニメ「ダンジョン飯」オリジナルサウンドトラック [Disc 1] (2024) [FLAC]/30. 水平思考.flac

    Track gain               : -1.05 dB
    Peak                     : 0.872589
    CRC32 hash (test run)    : BC8EAEFA
    CRC32 hash               : BC8EAEFA
    CRC32 hash (skip zero)   : 30918216
    AccurateRip v1 signature : F1DF39A0
    AccurateRip v2 signature : 0CD1499B
        ->Track not present in AccurateRip database.
    Statistics
        Read error                           : 0
        Jitter error (maybe fixed)           : 0
        Retry sector count                   : 0
        Damaged sector count                 : 0

Track 31
    Filename : /Users/Shared/XLD/Compilations - TVアニメ「ダンジョン飯」オリジナルサウンドトラック [Disc 1] (2024) [FLAC]/31. 業火の舞台.flac

    Track gain               : -5.01 dB
    Peak                     : 0.976624
    CRC32 hash (test run)    : EC337FCA
    CRC32 hash               : EC337FCA
    CRC32 hash (skip zero)   : AA020EF8
    AccurateRip v1 signature : 9EED7739
    AccurateRip v2 signature : 19C84A66
        ->Track not present in AccurateRip database.
    Statistics
        Read error                           : 0
        Jitter error (maybe fixed)           : 0
        Retry sector count                   : 0
        Damaged sector count                 : 0

Track 32
    Filename : /Users/Shared/XLD/Compilations - TVアニメ「ダンジョン飯」オリジナルサウンドトラック [Disc 1] (2024) [FLAC]/32. 黄金の国.flac

    Track gain               : -2.53 dB
    Peak                     : 0.778717
    CRC32 hash (test run)    : A4E866E1
    CRC32 hash               : A4E866E1
    CRC32 hash (skip zero)   : 69131326
    AccurateRip v1 signature : 0C36C96A
    AccurateRip v2 signature : 8CCBF72D
        ->Track not present in AccurateRip database.
    Statistics
        Read error                           : 0
        Jitter error (maybe fixed)           : 0
        Retry sector count                   : 0
        Damaged sector count                 : 0

Track 33
    Filename : /Users/Shared/XLD/Compilations - TVアニメ「ダンジョン飯」オリジナルサウンドトラック [Disc 1] (2024) [FLAC]/33. 絵に描いた餅.flac
    Pre-gap length : 00:01:59

    Track gain               : 1.07 dB
    Peak                     : 0.865509
    CRC32 hash (test run)    : 96D457DC
    CRC32 hash               : 96D457DC
    CRC32 hash (skip zero)   : D17BAE90
    AccurateRip v1 signature : B4EF1B86
    AccurateRip v2 signature : 51A3B09B
        ->Track not present in AccurateRip database.
    Statistics
        Read error                           : 0
        Jitter error (maybe fixed)           : 0
        Retry sector count                   : 0
        Damaged sector count                 : 0

Track 34
    Filename : /Users/Shared/XLD/Compilations - TVアニメ「ダンジョン飯」オリジナルサウンドトラック [Disc 1] (2024) [FLAC]/34. 上手に出来ました!？.flac

    Track gain               : -5.64 dB
    Peak                     : 0.913574
    CRC32 hash (test run)    : 28568278
    CRC32 hash               : 28568278
    CRC32 hash (skip zero)   : 0106483C
    AccurateRip v1 signature : 0E4EFC6E
    AccurateRip v2 signature : DE366EFD
        ->Track not present in AccurateRip database.
    Statistics
        Read error                           : 0
        Jitter error (maybe fixed)           : 0
        Retry sector count                   : 0
        Damaged sector count                 : 0

Track 35
    Filename : /Users/Shared/XLD/Compilations - TVアニメ「ダンジョン飯」オリジナルサウンドトラック [Disc 1] (2024) [FLAC]/35. 凶暴の住処.flac
    Pre-gap length : 00:01:43

    Track gain               : -0.72 dB
    Peak                     : 0.834015
    CRC32 hash (test run)    : AB4A31AA
    CRC32 hash               : AB4A31AA
    CRC32 hash (skip zero)   : 50AD5F7C
    AccurateRip v1 signature : FF9BA361
    AccurateRip v2 signature : 18A25995
        ->Track not present in AccurateRip database.
    Statistics
        Read error                           : 0
        Jitter error (maybe fixed)           : 0
        Retry sector count                   : 0
        Damaged sector count                 : 0

Track 36
    Filename : /Users/Shared/XLD/Compilations - TVアニメ「ダンジョン飯」オリジナルサウンドトラック [Disc 1] (2024) [FLAC]/36. 禍福はあざなえる縄のごとし.flac
    Pre-gap length : 00:01:50

    Track gain               : -4.38 dB
    Peak                     : 0.935791
    CRC32 hash (test run)    : C9542BE6
    CRC32 hash               : C9542BE6
    CRC32 hash (skip zero)   : 0283D457
    AccurateRip v1 signature : 6B6786B5
    AccurateRip v2 signature : 9DEB537B
        ->Track not present in AccurateRip database.
    Statistics
        Read error                           : 0
        Jitter error (maybe fixed)           : 0
        Retry sector count                   : 0
        Damaged sector count                 : 0

Track 37
    Filename : /Users/Shared/XLD/Compilations - TVアニメ「ダンジョン飯」オリジナルサウンドトラック [Disc 1] (2024) [FLAC]/37. 幻想.flac

    Track gain               : 0.99 dB
    Peak                     : 0.571838
    CRC32 hash (test run)    : 3C2D55DB
    CRC32 hash               : 3C2D55DB
    CRC32 hash (skip zero)   : 43F9E5FA
    AccurateRip v1 signature : DA46BD09
    AccurateRip v2 signature : 243D7648
        ->Track not present in AccurateRip database.
    Statistics
        Read error                           : 0
        Jitter error (maybe fixed)           : 0
        Retry sector count                   : 0
        Damaged sector count                 : 0

Track 38
    Filename : /Users/Shared/XLD/Compilations - TVアニメ「ダンジョン飯」オリジナルサウンドトラック [Disc 1] (2024) [FLAC]/38. 人魚の唄.flac

    Track gain               : 0.15 dB
    Peak                     : 0.501251
    CRC32 hash (test run)    : 356F3CAA
    CRC32 hash               : 356F3CAA
    CRC32 hash (skip zero)   : 3537C241
    AccurateRip v1 signature : D57EAB03
    AccurateRip v2 signature : 543A0403
        ->Track not present in AccurateRip database.
    Statistics
        Read error                           : 0
        Jitter error (maybe fixed)           : 0
        Retry sector count                   : 0
        Damaged sector count                 : 0

Track 39
    Filename : /Users/Shared/XLD/Compilations - TVアニメ「ダンジョン飯」オリジナルサウンドトラック [Disc 1] (2024) [FLAC]/39. 絆の調べ.flac

    Track gain               : 1.31 dB
    Peak                     : 0.711029
    CRC32 hash (test run)    : 7F90533E
    CRC32 hash               : 7F90533E
    CRC32 hash (skip zero)   : A3EA9E96
    AccurateRip v1 signature : 8F2F0CDE
    AccurateRip v2 signature : 5B46E9EE
        ->Track not present in AccurateRip database.
    Statistics
        Read error                           : 0
        Jitter error (maybe fixed)           : 0
        Retry sector count                   : 0
        Damaged sector count                 : 0

Track 40
    Filename : /Users/Shared/XLD/Compilations - TVアニメ「ダンジョン飯」オリジナルサウンドトラック [Disc 1] (2024) [FLAC]/40. 迷宮探索は世知辛い.flac

    Track gain               : -2.90 dB
    Peak                     : 0.805298
    CRC32 hash (test run)    : 925B2C81
    CRC32 hash               : 925B2C81
    CRC32 hash (skip zero)   : 6E57A1D4
    AccurateRip v1 signature : 67A7A1C2
    AccurateRip v2 signature : 15284808
        ->Track not present in AccurateRip database.
    Statistics
        Read error                           : 0
        Jitter error (maybe fixed)           : 0
        Retry sector count                   : 0
        Damaged sector count                 : 0

No errors occurred

End of status report

-----BEGIN XLD SIGNATURE-----
m5VNCct_PQXBYzos_pacrT5UJebjw1CE11cU9JtYl937TT54Re73jBmTSPeMwpK5qcEAUXFaeLSHTr9xKYfPzGzTlTHBfCh5FX7ND6y
-----END XLD SIGNATURE-----
